<svg data-v-0dd9719b="" version="1.0" xmlns="http://www.w3.org/2000/svg" xmlns:xlink="http://www.w3.org/1999/xlink" width="100%" height="100%" viewBox="0 0 340.000000 250.000000" preserveAspectRatio="xMidYMid meet" color-interpolation-filters="sRGB" style="margin: auto;"> <rect data-v-0dd9719b="" x="0" y="0" width="100%" height="100%" fill="#FFFFFF" fill-opacity="1" class="background"></rect>  <g data-v-0dd9719b="" fill="#557a82" class="basesvg" transform="translate(81.72499859333038,98.12199974060059)"><g data-gra="path-name" fill-rule="" class="tp-name" transform="translate(0,0)"><g transform="scale(1)"><g><path d="M12.54-38.5L1.59-38.5C3.79-32.84 3.69-4.84 1.59 0.55L12.48 0.55C11.49-1.49 11.05-2.58 11.05-4.24L11.05-12.1 12.54-12.1C20.52-12.1 24.42-16 24.42-22.93L24.42-27.66C24.42-34.59 20.52-38.5 12.54-38.5ZM16.39-23.87C16.39-20.68 15.56-19.69 11.05-19.69L11.05-30.91C15.46-30.91 16.39-30.03 16.39-26.73ZM37.56 0.55C35.59-4.62 35.36-30.09 37.56-35.2L26.73-35.2C28.65-30.09 28.88-4.62 26.73 0.55ZM52.36-22.77L60.61-25.57C60.77-32.23 56.87-36.3 50.44-36.3 44.16-36.3 40.37-32.4 40.37-25.96L40.37-9.24C40.37-2.81 44.16 1.1 50.44 1.1 56.87 1.1 60.77-2.97 60.61-9.63L52.36-12.32C52.74-8.96 52.52-6.49 50.6-6.49 49.06-6.49 48.4-9.02 48.4-17.55 48.4-23.05 47.96-28.71 50.6-28.71 53.08-28.71 52.85-25.25 52.36-22.77ZM79.25-30.8C82.56-30.8 84.2-30.96 87.5-29.26L86.46-38.5 64.02-38.5 62.92-29.15C66.11-30.91 68.09-30.8 71.22-30.8 71.22-14.57 71.44-3.79 69.8 0.55L80.69 0.55C79.03-3.96 79.25-14.57 79.25-30.8ZM111.16 0.55C108.46-5.61 104.01-30.41 105.05-35.2L91.91-35.2C92.84-30.36 88.72-5.61 85.91 0.55L96.75 0.55C95.76-0.55 95.92-2.2 96.14-4.29L100.71-4.29C100.93-2.31 101.09-0.71 100.16 0.55ZM99.72-11.77L97.3-11.77 98.56-22.99ZM134.2-9.13C130.68-6.88 129.53-7.15 121.88-7.15 121.88-31.02 121.17-30.86 123.31-35.2L112.48-35.2C114.62-30.75 114.4-24.04 113.85 0.55L132.61 0.55ZM145.15-27.61C151.69-27.61 152.24-27.83 154.66-26.68L155.7-35.2 135.69-35.2C137.66-30.2 137.88-4.95 135.69 0.55L155.7 0.55 154.82-7.97C152.68-6.88 152.02-7.04 145.15-7.04L145.15-13.53C148.17-13.53 150.04-13.42 152.57-12.48L152.57-22.11C149.82-21.07 148.17-21.12 145.15-21.12ZM165.82-13.59C169.12-12.65 170.11-11.49 170.11-9.24 170.11-7.97 169.95-6.49 168.24-6.49 166.04-6.49 165.82-8.96 166.98-11L158.56-10.62 158.56-8.63C158.56-2.53 162.19 1.1 168.35 1.1 174.51 1.1 178.14-3.08 178.14-9.19 178.14-14.41 176.38-18.09 170.44-20.41 166.76-21.84 165.93-22.5 165.93-24.91 165.93-27.23 166.43-28.16 167.8-28.16 169.78-28.16 170.11-25.02 169.67-23.71L177.59-24.09C177.59-31.35 175.12-35.75 168.02-35.75 160.82-35.75 157.9-31.52 157.9-24.09 157.9-19.3 158.67-15.68 165.82-13.59Z" transform="translate(-1.590000033378601, 38.5)"></path></g> <!----> <!----> <!----> <!----> <!----> <!----> <!----></g></g> <g data-gra="path-slogan" fill-rule="" class="tp-slogan" fill="#557a82" transform="translate(0.3899993896484375,45.599998474121094)"><!----> <!----> <g transform="scale(1, 1)"><g transform="scale(1)"><path d="M2.71-7.03L2.71 0L3.72 0L3.72-7.03L6.10-7.03L6.10-7.87L0.34-7.87L0.34-7.03ZM7.51-7.87L7.51 0L8.51 0L8.51-3.71L12.17-3.71L12.17 0L13.18 0L13.18-7.87L12.17-7.87L12.17-4.57L8.51-4.57L8.51-7.87ZM15.34-7.87L15.34 0L19.99 0L19.99-0.85L16.33-0.85L16.33-3.71L19.32-3.71L19.32-4.56L16.33-4.56L16.33-7.03L19.87-7.03L19.87-7.87ZM24.11-1.72L23.51-1.02C23.85-0.66 24.26-0.38 24.73-0.17C25.20 0.04 25.72 0.14 26.27 0.14C26.68 0.14 27.06 0.09 27.38-0.03C27.71-0.15 27.99-0.31 28.22-0.51C28.46-0.71 28.63-0.95 28.76-1.22C28.88-1.50 28.94-1.79 28.94-2.10C28.94-2.39 28.90-2.64 28.82-2.86C28.73-3.08 28.62-3.27 28.48-3.44C28.33-3.60 28.16-3.75 27.96-3.87C27.76-3.99 27.55-4.10 27.32-4.20L26.21-4.68C26.05-4.74 25.89-4.81 25.74-4.89C25.59-4.97 25.45-5.05 25.32-5.15C25.19-5.25 25.09-5.37 25.01-5.50C24.94-5.63 24.90-5.80 24.90-5.99C24.90-6.35 25.03-6.63 25.30-6.83C25.57-7.04 25.92-7.14 26.36-7.14C26.73-7.14 27.06-7.07 27.35-6.94C27.65-6.81 27.91-6.63 28.15-6.40L28.69-7.04C28.41-7.33 28.07-7.57 27.67-7.75C27.27-7.93 26.84-8.02 26.36-8.02C26.00-8.02 25.67-7.96 25.37-7.86C25.07-7.76 24.81-7.61 24.59-7.42C24.37-7.23 24.20-7.01 24.08-6.76C23.95-6.50 23.89-6.22 23.89-5.93C23.89-5.64 23.94-5.39 24.04-5.17C24.13-4.95 24.26-4.76 24.41-4.60C24.56-4.44 24.73-4.30 24.92-4.19C25.12-4.08 25.30-3.98 25.49-3.90L26.62-3.41C26.80-3.32 26.97-3.24 27.13-3.16C27.29-3.08 27.43-2.99 27.55-2.89C27.66-2.79 27.75-2.67 27.82-2.53C27.89-2.39 27.92-2.22 27.92-2.02C27.92-1.63 27.78-1.32 27.49-1.09C27.20-0.85 26.80-0.73 26.28-0.73C25.87-0.73 25.48-0.82 25.10-1.00C24.72-1.18 24.39-1.42 24.11-1.72ZM31.88-7.03L31.88 0L32.89 0L32.89-7.03L35.27-7.03L35.27-7.87L29.51-7.87L29.51-7.03ZM39.30 0.14C39.80 0.14 40.25 0.05 40.66-0.14C41.07-0.34 41.43-0.61 41.73-0.97C42.03-1.32 42.26-1.75 42.43-2.26C42.59-2.77 42.67-3.34 42.67-3.97C42.67-4.60 42.59-5.16 42.43-5.66C42.26-6.16 42.03-6.58 41.73-6.93C41.43-7.28 41.07-7.55 40.66-7.73C40.25-7.92 39.80-8.02 39.30-8.02C38.80-8.02 38.35-7.92 37.94-7.74C37.53-7.56 37.17-7.29 36.88-6.94C36.58-6.59 36.35-6.17 36.19-5.67C36.02-5.17 35.94-4.60 35.94-3.97C35.94-3.34 36.02-2.77 36.19-2.26C36.35-1.75 36.58-1.32 36.88-0.97C37.17-0.61 37.53-0.34 37.94-0.14C38.35 0.05 38.80 0.14 39.30 0.14ZM39.30-0.73C38.95-0.73 38.63-0.81 38.35-0.96C38.06-1.11 37.82-1.33 37.61-1.61C37.41-1.90 37.25-2.24 37.14-2.63C37.03-3.03 36.97-3.48 36.97-3.97C36.97-4.46 37.03-4.90 37.14-5.29C37.25-5.68 37.41-6.02 37.61-6.29C37.82-6.56 38.06-6.77 38.35-6.92C38.63-7.07 38.95-7.14 39.30-7.14C39.65-7.14 39.97-7.07 40.25-6.92C40.54-6.77 40.78-6.56 40.99-6.29C41.19-6.02 41.35-5.68 41.46-5.29C41.57-4.90 41.63-4.46 41.63-3.97C41.63-3.48 41.57-3.03 41.46-2.63C41.35-2.24 41.19-1.90 40.99-1.61C40.78-1.33 40.54-1.11 40.25-0.96C39.97-0.81 39.65-0.73 39.30-0.73ZM45.36-4.14L45.36-7.07L46.68-7.07C47.30-7.07 47.77-6.96 48.10-6.76C48.42-6.55 48.59-6.18 48.59-5.66C48.59-5.15 48.42-4.77 48.10-4.52C47.77-4.27 47.30-4.14 46.68-4.14ZM48.68 0L49.81 0L47.82-3.43C48.36-3.57 48.78-3.82 49.10-4.19C49.42-4.56 49.58-5.05 49.58-5.66C49.58-6.07 49.52-6.42 49.38-6.70C49.24-6.98 49.05-7.20 48.81-7.38C48.57-7.56 48.27-7.68 47.93-7.76C47.59-7.83 47.22-7.87 46.82-7.87L44.36-7.87L44.36 0L45.36 0L45.36-3.32L46.79-3.32ZM51.34-7.87L51.34 0L52.33 0L52.33-7.87ZM54.49-7.87L54.49 0L59.15 0L59.15-0.85L55.49-0.85L55.49-3.71L58.48-3.71L58.48-4.56L55.49-4.56L55.49-7.03L59.03-7.03L59.03-7.87ZM60.84-1.72L60.24-1.02C60.58-0.66 60.99-0.38 61.46-0.17C61.94 0.04 62.45 0.14 63.00 0.14C63.42 0.14 63.79 0.09 64.12-0.03C64.44-0.15 64.72-0.31 64.96-0.51C65.19-0.71 65.37-0.95 65.49-1.22C65.61-1.50 65.68-1.79 65.68-2.10C65.68-2.39 65.63-2.64 65.55-2.86C65.47-3.08 65.35-3.27 65.21-3.44C65.06-3.60 64.89-3.75 64.69-3.87C64.49-3.99 64.28-4.10 64.06-4.20L62.94-4.68C62.78-4.74 62.62-4.81 62.47-4.89C62.32-4.97 62.18-5.05 62.05-5.15C61.92-5.25 61.82-5.37 61.75-5.50C61.67-5.63 61.63-5.80 61.63-5.99C61.63-6.35 61.77-6.63 62.03-6.83C62.30-7.04 62.66-7.14 63.10-7.14C63.46-7.14 63.79-7.07 64.09-6.94C64.38-6.81 64.64-6.63 64.88-6.40L65.42-7.04C65.14-7.33 64.80-7.57 64.40-7.75C64.00-7.93 63.57-8.02 63.10-8.02C62.74-8.02 62.41-7.96 62.11-7.86C61.81-7.76 61.55-7.61 61.33-7.42C61.11-7.23 60.93-7.01 60.81-6.76C60.69-6.50 60.62-6.22 60.62-5.93C60.62-5.64 60.67-5.39 60.77-5.17C60.86-4.95 60.99-4.76 61.14-4.60C61.29-4.44 61.46-4.30 61.66-4.19C61.85-4.08 62.04-3.98 62.22-3.90L63.35-3.41C63.53-3.32 63.70-3.24 63.86-3.16C64.02-3.08 64.16-2.99 64.28-2.89C64.39-2.79 64.49-2.67 64.55-2.53C64.62-2.39 64.66-2.22 64.66-2.02C64.66-1.63 64.51-1.32 64.22-1.09C63.94-0.85 63.53-0.73 63.01-0.73C62.60-0.73 62.21-0.82 61.83-1.00C61.45-1.18 61.12-1.42 60.84-1.72ZM69.65-7.87L69.65 0L72.16 0C72.60 0 73.00-0.05 73.37-0.14C73.74-0.24 74.05-0.38 74.32-0.58C74.58-0.77 74.78-1.01 74.93-1.30C75.07-1.58 75.14-1.92 75.14-2.30C75.14-2.85 74.98-3.28 74.66-3.59C74.34-3.90 73.90-4.10 73.32-4.19L73.32-4.24C73.78-4.36 74.13-4.57 74.35-4.89C74.58-5.21 74.69-5.56 74.69-5.95C74.69-6.30 74.62-6.59 74.49-6.83C74.36-7.08 74.17-7.28 73.94-7.43C73.70-7.58 73.42-7.69 73.09-7.76C72.75-7.84 72.39-7.87 71.99-7.87ZM71.81-4.51L70.64-4.51L70.64-7.08L71.86-7.08C72.47-7.08 72.93-6.99 73.24-6.80C73.55-6.61 73.70-6.30 73.70-5.87C73.70-5.43 73.56-5.09 73.27-4.86C72.97-4.63 72.49-4.51 71.81-4.51ZM72.01-0.79L70.64-0.79L70.64-3.77L72.01-3.77C72.71-3.77 73.24-3.65 73.61-3.43C73.98-3.20 74.16-2.84 74.16-2.35C74.16-1.82 73.97-1.42 73.60-1.17C73.22-0.92 72.69-0.79 72.01-0.79ZM76.70-7.87L76.70 0L81.36 0L81.36-0.85L77.70-0.85L77.70-3.71L80.69-3.71L80.69-4.56L77.70-4.56L77.70-7.03L81.24-7.03L81.24-7.87ZM83.03-7.87L83.03 0L84.02 0L84.02-3.71L87.68-3.71L87.68 0L88.69 0L88.69-7.87L87.68-7.87L87.68-4.57L84.02-4.57L84.02-7.87ZM90.85-7.87L90.85 0L91.85 0L91.85-7.87ZM94.01-7.87L94.01 0L94.96 0L94.96-4.12C94.96-4.53 94.94-4.95 94.91-5.36C94.89-5.77 94.86-6.18 94.82-6.58L94.87-6.58L95.72-4.96L98.58 0L99.61 0L99.61-7.87L98.66-7.87L98.66-3.80C98.66-3.39 98.68-2.97 98.71-2.54C98.73-2.11 98.76-1.70 98.78-1.30L98.74-1.30L97.88-2.93L95.04-7.87ZM101.77-7.87L101.77 0L103.79 0C104.38 0 104.90-0.09 105.36-0.27C105.82-0.45 106.20-0.71 106.51-1.05C106.82-1.39 107.06-1.81 107.22-2.30C107.38-2.79 107.46-3.35 107.46-3.97C107.46-5.23 107.14-6.19 106.51-6.86C105.88-7.54 104.96-7.87 103.74-7.87ZM103.67-0.82L102.77-0.82L102.77-7.06L103.67-7.06C104.59-7.06 105.28-6.79 105.74-6.26C106.20-5.74 106.43-4.97 106.43-3.97C106.43-2.97 106.20-2.20 105.74-1.64C105.28-1.09 104.59-0.82 103.67-0.82ZM111.58-7.87L111.58 0L116.23 0L116.23-0.85L112.57-0.85L112.57-3.71L115.56-3.71L115.56-4.56L112.57-4.56L112.57-7.03L116.11-7.03L116.11-7.87ZM116.82-7.87L119.34 0L120.50 0L123-7.87L121.98-7.87L120.72-3.62C120.58-3.15 120.46-2.72 120.35-2.32C120.24-1.92 120.11-1.48 119.96-1.02L119.92-1.02C119.76-1.48 119.63-1.92 119.53-2.32C119.42-2.72 119.29-3.15 119.15-3.62L117.89-7.87ZM124.08-7.87L124.08 0L128.74 0L128.74-0.85L125.08-0.85L125.08-3.71L128.06-3.71L128.06-4.56L125.08-4.56L125.08-7.03L128.62-7.03L128.62-7.87ZM131.40-4.14L131.40-7.07L132.72-7.07C133.34-7.07 133.81-6.96 134.14-6.76C134.46-6.55 134.63-6.18 134.63-5.66C134.63-5.15 134.46-4.77 134.14-4.52C133.81-4.27 133.34-4.14 132.72-4.14ZM134.72 0L135.85 0L133.86-3.43C134.40-3.57 134.82-3.82 135.14-4.19C135.46-4.56 135.62-5.05 135.62-5.66C135.62-6.07 135.56-6.42 135.42-6.70C135.28-6.98 135.09-7.20 134.85-7.38C134.61-7.56 134.31-7.68 133.97-7.76C133.63-7.83 133.26-7.87 132.86-7.87L130.40-7.87L130.40 0L131.40 0L131.40-3.32L132.83-3.32ZM138.48-3.05L138.48 0L139.49 0L139.49-3.05L141.85-7.87L140.81-7.87L139.80-5.65C139.68-5.36 139.55-5.08 139.42-4.80C139.28-4.52 139.14-4.23 139.01-3.94L138.96-3.94C138.82-4.23 138.70-4.52 138.58-4.80C138.46-5.08 138.33-5.36 138.20-5.65L137.18-7.87L136.12-7.87ZM144.89-3.94C144.89-3.30 144.97-2.72 145.15-2.21C145.32-1.71 145.56-1.28 145.87-0.93C146.17-0.58 146.54-0.32 146.96-0.13C147.38 0.05 147.84 0.14 148.33 0.14C148.84 0.14 149.28 0.04 149.68-0.16C150.07-0.36 150.42-0.64 150.73-1.00L150.17-1.61C149.91-1.33 149.64-1.11 149.36-0.96C149.07-0.81 148.74-0.73 148.36-0.73C147.98-0.73 147.64-0.81 147.34-0.96C147.04-1.11 146.79-1.33 146.58-1.61C146.37-1.89 146.21-2.23 146.09-2.62C145.98-3.02 145.92-3.46 145.92-3.96C145.92-4.45 145.98-4.89 146.10-5.28C146.22-5.67 146.39-6.01 146.60-6.28C146.82-6.56 147.08-6.77 147.38-6.92C147.69-7.07 148.03-7.14 148.40-7.14C148.74-7.14 149.03-7.07 149.29-6.94C149.54-6.81 149.77-6.63 149.98-6.41L150.54-7.04C150.31-7.30 150.01-7.53 149.65-7.72C149.29-7.92 148.87-8.02 148.39-8.02C147.89-8.02 147.42-7.92 146.99-7.73C146.57-7.55 146.20-7.28 145.88-6.92C145.57-6.57 145.33-6.14 145.15-5.64C144.98-5.14 144.89-4.57 144.89-3.94ZM152.20-7.87L152.20 0L156.64 0L156.64-0.85L153.19-0.85L153.19-7.87ZM158.03-7.87L158.03 0L159.02 0L159.02-7.87ZM160.73-3.94C160.73-3.30 160.81-2.72 160.99-2.21C161.16-1.71 161.40-1.28 161.71-0.93C162.01-0.58 162.38-0.32 162.80-0.13C163.22 0.05 163.68 0.14 164.17 0.14C164.68 0.14 165.12 0.04 165.52-0.16C165.91-0.36 166.26-0.64 166.57-1.00L166.01-1.61C165.75-1.33 165.48-1.11 165.20-0.96C164.91-0.81 164.58-0.73 164.20-0.73C163.82-0.73 163.48-0.81 163.18-0.96C162.88-1.11 162.63-1.33 162.42-1.61C162.21-1.89 162.05-2.23 161.93-2.62C161.82-3.02 161.76-3.46 161.76-3.96C161.76-4.45 161.82-4.89 161.94-5.28C162.06-5.67 162.23-6.01 162.44-6.28C162.66-6.56 162.92-6.77 163.22-6.92C163.53-7.07 163.87-7.14 164.24-7.14C164.58-7.14 164.87-7.07 165.13-6.94C165.38-6.81 165.61-6.63 165.82-6.41L166.38-7.04C166.15-7.30 165.85-7.53 165.49-7.72C165.13-7.92 164.71-8.02 164.23-8.02C163.73-8.02 163.26-7.92 162.83-7.73C162.41-7.55 162.04-7.28 161.72-6.92C161.41-6.57 161.17-6.14 160.99-5.64C160.82-5.14 160.73-4.57 160.73-3.94ZM168.04-7.87L168.04 0L169.03 0L169.03-2.50L170.39-4.09L172.74 0L173.86 0L171.01-4.87L173.47-7.87L172.34-7.87L169.07-3.92L169.03-3.92L169.03-7.87ZM174.68-0.60C174.68-0.38 174.75-0.21 174.89-0.07C175.03 0.07 175.20 0.14 175.40 0.14C175.60 0.14 175.76 0.07 175.90-0.07C176.04-0.21 176.11-0.38 176.11-0.60C176.11-0.83 176.04-1.02 175.90-1.16C175.76-1.30 175.60-1.37 175.40-1.37C175.20-1.37 175.03-1.30 174.89-1.16C174.75-1.02 174.68-0.83 174.68-0.60Z" transform="translate(-0.336, 8.016)"></path></g></g></g></g><defs v-gra="od"></defs></svg>