<svg data-v-0dd9719b="" version="1.0" xmlns="http://www.w3.org/2000/svg"
    xmlns:xlink="http://www.w3.org/1999/xlink" width="100%" height="100%"
    viewBox="0 0 340.000000 250.000000" preserveAspectRatio="xMidYMid meet"
    color-interpolation-filters="sRGB" style="margin: auto;">  <!---->
    <g data-v-0dd9719b="" class="iconmbgsvg" transform="translate(113.75,62.800628662109375)">
        <g fill="#000000" hollow-target="textNormalTran">
            <g opacity="0.55">
                <g>
                    <rect fill="#000000" fill-opacity="0" stroke-width="2" x="0" y="0" width="112.5"
                        height="124.39873942610716" class="image-rect"></rect>
                    <svg x="0" y="0" width="112.5" height="124.39873942610716"
                        filtersec="colorsb1943507562" class="image-svg-svg primary"
                        style="overflow: visible;">
                        <svg xmlns="http://www.w3.org/2000/svg"
                            viewBox="-0.028334127739071846 -0.02833189256489277 65.8083267211914 72.76834106445312">
                            <g id="图层_2" data-name="图层 2">
                                <g id="Layer_1" data-name="Layer 1">
                                    <path
                                        d="M.06,32.87V65.33a7.43,7.43,0,0,0,7.41,7.41h0a7.43,7.43,0,0,0,7.41-7.41V32.87a7.43,7.43,0,0,0-7.41-7.41h0A7.43,7.43,0,0,0,.06,32.87Z"
                                        fill="#67c2e0" fill-rule="evenodd"></path>
                                    <path
                                        d="M25.13,4.2l-23,23a7.44,7.44,0,0,0,0,10.48h0a7.44,7.44,0,0,0,10.48,0l23-23a7.44,7.44,0,0,0,0-10.48h0a7.44,7.44,0,0,0-10.48,0Z"
                                        fill="#b4e866" fill-rule="evenodd"></path>
                                    <path
                                        d="M50.11,35.61l-22.95-23a7.42,7.42,0,0,1,0-10.48h0a7.44,7.44,0,0,1,10.48,0l23,23a7.44,7.44,0,0,1,0,10.48h0a7.44,7.44,0,0,1-10.48,0Z"
                                        fill="#ffdd6e" fill-rule="evenodd"></path>
                                    <path
                                        d="M27.16,2.17a7.41,7.41,0,1,0,10.48,0,7.4,7.4,0,0,0-10.48,0Z"
                                        fill="#ffc70d" fill-rule="evenodd"></path>
                                    <path
                                        d="M2.17,27.16a7.41,7.41,0,1,0,10.48,0,7.42,7.42,0,0,0-10.48,0Z"
                                        fill="#82d900" fill-rule="evenodd"></path>
                                    <path
                                        d="M7.47,57.92A7.41,7.41,0,1,1,.06,65.33a7.41,7.41,0,0,1,7.41-7.41Z"
                                        fill="#019acc" fill-rule="evenodd"></path>
                                    <path
                                        d="M50.94,64.86V32.4A7.44,7.44,0,0,1,58.36,25h0a7.44,7.44,0,0,1,7.41,7.42V64.86a7.43,7.43,0,0,1-7.41,7.41h0a7.43,7.43,0,0,1-7.42-7.41Z"
                                        fill="#ff9a79" fill-rule="evenodd"></path>
                                    <path
                                        d="M58.36,39.81a7.42,7.42,0,1,0-7.42-7.41,7.41,7.41,0,0,0,7.42,7.41Z"
                                        fill="#ff571f" fill-rule="evenodd"></path>
                                    <path
                                        d="M58.36,57.92H15.49V72.74H58.36a7.41,7.41,0,0,0,0-14.82Z"
                                        fill="#e5b4e7" fill-rule="evenodd"></path>
                                    <path
                                        d="M58.36,57.92a7.41,7.41,0,1,0,7.41,7.41,7.42,7.42,0,0,0-7.41-7.41Z"
                                        fill="#be44c2" fill-rule="evenodd"></path>
                                </g>
                            </g>
                        </svg>
                    </svg> <!---->
                </g>
            </g>
            <g transform="translate(13.509998321533203,38.60437202453613)">
                <g data-gra="path-name" fill-rule="" class="tp-name">
                    <g transform="scale(1)">
                        <g>
                            <path
                                d="M4.68-44.46L4.68 2.73 17.23 0 17.23-11.7C18.85-11.63 20.54-11.57 22.3-11.57 33.73-11.57 47.58-14.24 46.93-28.34 46.48-38.68 37.44-44.46 24.89-44.46ZM48.82-38.55L63.25-33.61 63.25 0 75.73 0 75.73-30.42 90.16-26.39 90.16-44.46 48.82-44.46Z"
                                transform="translate(-4.679999828338623, 44.459999084472656)"></path>
                        </g> <!----> <!----> <!----> <!----> <!----> <!----> <!---->
                    </g>
                </g> <!---->
            </g>
        </g>
    </g>
    <defs v-gra="od"></defs>
</svg>